<?xml version="1.0" encoding="UTF-8"?>
<!-- Generator: Adobe Illustrator 15.0.2, SVG Export Plug-In . SVG Version: 6.00 Build 0)  -->
<!DOCTYPE svg PUBLIC "-//W3C//DTD SVG 1.1//EN" "http://www.w3.org/Graphics/SVG/1.1/DTD/svg11.dtd">
<svg xmlns="http://www.w3.org/2000/svg" xmlns:xlink="http://www.w3.org/1999/xlink" version="1.1" id="Layer_1" x="0px" y="0px" width="512px" height="694.857px" viewBox="0 0 512 694.857" enable-background="new 0 0 512 694.857" xml:space="preserve">
<path d="M256,438.857c60.536,0,109.357-49.179,109.357-109.715l0.356-219.429C365.714,49.009,316.714,0,256,0  c-60.526,0-109.714,49.009-109.714,109.714v219.429C146.286,389.679,195.474,438.857,256,438.857z M449.821,329.143  c0,109.715-92.714,186.519-193.821,186.519c-100.938,0-193.83-76.804-193.83-186.519H0c0,124.894,99.474,228.019,219.429,245.75  v119.965h73.143V574.893C412.536,557.161,512,454.036,512,329.143H449.821z" fill="#000000"/>
</svg>
